<?xml version="1.0"?>
<svg xmlns="http://www.w3.org/2000/svg" viewBox="0 0 50 50">
    <path d="M 33.433594 2 C 31.495909 2 29.910506 3.2295622 28.869141 3.8339844 C 26.683766 5.1047393 25.347283 6 23.164062 6 C 23.28409 6 22.764943 5.9497076 22.226562 5.8574219 C 21.688183 5.7651361 21.002178 5.6413072 20.287109 5.515625 C 18.856972 5.2642607 17.408798 5 16.470703 5 C 15.646705 5 14.92106 5.1601809 14.322266 5.25 C 12.164479 5.5710152 10.867767 6.8171687 10.005859 8.0742188 C 9.1435684 9.3318287 8.5619465 10.571026 7.5683594 11.458984 C 7.1567631 11.825424 6.5078029 12.13173 5.8085938 12.564453 C 5.1088278 12.997521 4.3048642 13.666027 4.0292969 14.753906 C 3.7525206 15.845029 4.0284267 16.883394 4.3046875 17.820312 C 4.5809483 18.757231 4.8876488 19.633239 4.9492188 20.158203 C 5.1248522 21.661143 5.1459779 23.390082 4.8417969 23.912109 L 4.8222656 23.943359 L 4.8066406 23.976562 C 4.2780218 25.062417 2.95004 26.078269 2.3203125 27.945312 C 1.9006203 29.188644 2.0037372 30.358647 2.2421875 31.378906 C 2.4806378 32.399165 2.8308335 33.305619 3.0195312 34.205078 C 3.1676768 34.909517 3.0403262 35.470946 2.7910156 36.199219 C 2.5417052 36.927492 2.1490602 37.783798 2.0058594 38.869141 C 1.771578 40.638812 2.3272524 42.208643 3.40625 43.291016 C 4.4852476 44.373388 5.9981089 45.000019 7.6972656 45.316406 L 7.6992188 45.316406 C 8.6985407 45.501064 9.7664415 45.719961 10.826172 45.861328 L 10.816406 45.861328 C 11.114013 45.904028 12.331025 46.180735 13.552734 46.443359 C 14.769496 46.70492 16.0044 46.965055 16.902344 46.998047 C 16.902344 46.998047 16.904297 46.998047 16.904297 46.998047 C 17.107685 47.007847 17.306058 47.013672 17.503906 47.013672 C 21.316301 47.013672 23.31432 46.684148 26.947266 45.951172 C 27.948244 45.749831 29.178104 45.584307 30.310547 45.316406 C 32.517315 44.794027 34.839481 44.646083 37.242188 44.226562 C 39.49055 43.835636 41.257048 42.971224 42.451172 40.9375 C 42.891032 40.188303 43.609697 39.720997 44.486328 39.119141 C 45.362959 38.517284 46.408145 37.7403 46.931641 36.355469 L 46.931641 36.353516 L 46.933594 36.353516 C 47.543406 34.736451 47.996094 33.32982 47.996094 31.001953 C 47.996094 29.768582 47.588283 28.836457 47.125 28.160156 C 46.699751 27.539506 46.310731 27.100576 46 26.5625 C 45.93059 26.113004 45.930489 25.817188 46.042969 25.503906 C 46.169564 25.151314 46.450579 24.691849 46.898438 24.017578 L 46.900391 24.017578 C 47.620971 22.928329 47.996094 21.450353 47.996094 20.001953 C 47.996094 19.04449 47.618847 18.16231 47.337891 17.103516 C 47.056934 16.044721 46.861704 14.925539 46.984375 14.158203 L 47 14.056641 L 46.996094 13.951172 C 46.940534 12.815902 46.348365 11.900962 45.634766 11.308594 C 44.921899 10.716834 44.103245 10.36733 43.371094 10.074219 L 43.369141 10.072266 C 42.490962 9.7181566 42.143331 9.4655013 42.056641 9.3378906 C 41.969797 9.2100543 41.903207 8.940983 41.992188 8.1074219 L 41.992188 8.1054688 C 42.101571 7.0707572 41.872413 6.1294382 41.390625 5.3984375 C 40.908837 4.6674368 40.221443 4.1601682 39.488281 3.78125 C 38.045748 3.0357093 36.363327 2.7175707 35.027344 2.3671875 C 34.506097 2.113425 33.954922 2 33.433594 2 z M 33.433594 4 C 33.720958 4 33.967911 4.054428 34.216797 4.1914062 L 34.324219 4.2519531 L 34.382812 4.2675781 C 35.983083 4.8707142 36.625345 6.1460578 36.929688 7.6953125 C 37.236027 9.2547355 37.083844 10.954633 37.001953 11.916016 C 36.984813 12.109667 36.876798 12.22855 36.582031 12.710938 C 36.286698 13.194251 35.950984 13.988136 35.998047 15.044922 C 36.033867 15.854809 36.376742 16.457576 36.617188 16.939453 C 36.857631 17.42133 36.996508 17.773321 36.998047 18.005859 C 37.004847 19.002441 36.645909 19.562331 36.28125 20.509766 C 35.916591 21.4572 35.709659 22.783923 36.378906 24.457031 L 36.359375 24.404297 C 36.734274 25.51942 36.978251 26.376343 36.927734 26.830078 C 36.877214 27.283813 36.744733 27.585539 35.599609 28.083984 L 35.599609 28.082031 C 34.804778 28.42732 33.459115 28.689576 32.353516 29.345703 C 31.758248 29.697089 31.407524 29.948302 31.126953 30.101562 C 30.845859 30.255109 30.600395 30.353659 30.015625 30.470703 C 28.919923 30.688823 27.909278 31.057379 27.146484 31.816406 C 26.383253 32.575869 25.987006 33.691038 25.998047 35.007812 L 25.998047 35.009766 C 26.007947 36.110287 25.899507 36.497769 25.208984 37.386719 C 24.982986 37.677077 24.5406 38.10745 24.078125 38.4375 C 23.638017 38.751587 23.173549 38.950382 22.939453 38.990234 C 22.930608 38.977399 22.931819 38.97277 22.914062 38.953125 C 22.756598 38.77891 22.410797 38.281826 21.724609 38.056641 L 21.722656 38.056641 C 21.016664 37.826095 20.325871 37.915492 19.705078 38.109375 C 19.084286 38.303262 18.522677 38.61021 18.072266 39.037109 C 16.952001 40.098582 15.894584 41.394663 14.806641 42.382812 C 13.73331 43.35769 12.701145 43.972554 11.644531 43.988281 C 11.465708 43.953079 11.234681 43.900241 11.099609 43.880859 L 11.095703 43.880859 L 11.089844 43.878906 C 10.125638 43.750275 9.0871779 43.540905 8.0625 43.351562 C 6.6306568 43.08495 5.501768 42.560534 4.8222656 41.878906 C 4.1427632 41.197279 3.8235158 40.390188 3.9902344 39.130859 C 4.0870335 38.397202 4.391951 37.693883 4.6816406 36.847656 C 4.9713302 36.001429 5.224417 34.973483 4.9765625 33.794922 C 4.7452603 32.692381 4.3842528 31.757319 4.1894531 30.923828 C 3.9946534 30.090337 3.9415359 29.393654 4.2148438 28.583984 C 4.6039563 27.430326 5.7714596 26.508271 6.5722656 24.902344 C 7.4691992 23.347299 7.1131034 21.443539 6.9355469 19.925781 L 6.9355469 19.923828 C 6.8261167 18.990839 6.4713956 18.097488 6.2226562 17.253906 C 5.973917 16.410325 5.8625731 15.656971 5.9667969 15.246094 C 6.0742296 14.821973 6.321344 14.597854 6.8613281 14.263672 C 7.4013123 13.929489 8.179937 13.593343 8.9003906 12.951172 C 10.267804 11.72913 10.928088 10.264218 11.654297 9.2050781 C 12.380506 8.1459382 13.021704 7.4632294 14.617188 7.2265625 L 14.619141 7.2265625 C 15.300299 7.1243816 15.922701 7 16.470703 7 C 16.932608 7 18.52484 7.2357393 19.939453 7.484375 C 20.64676 7.6086928 21.333208 7.7348639 21.888672 7.8300781 C 22.444136 7.9252924 22.738536 8 23.164062 8 C 25.912843 8 27.738422 6.8037451 29.873047 5.5625 C 31.057682 4.8749222 32.459279 4 33.433594 4 z M 28.787109 11.078125 C 27.675203 11.011283 26.211547 11.695281 24.029297 13.285156 L 23.933594 13.355469 C 23.836594 13.425469 23.479703 13.568828 23.220703 13.673828 C 22.015703 14.160828 19.998047 14.976047 19.998047 16.998047 L 19.998047 17.027344 C 20.022047 17.853344 20.333422 18.486922 20.607422 19.044922 C 20.798422 19.434922 20.963813 19.769953 21.007812 20.126953 C 21.042813 20.396953 21.063844 20.73075 21.089844 21.09375 C 21.217844 22.92675 21.431656 25.994141 23.722656 25.994141 L 23.724609 25.994141 C 23.782609 25.997141 23.838531 25.998047 23.894531 25.998047 C 25.285531 25.998047 26.093047 25.114437 26.748047 24.398438 L 27.125 23.990234 C 27.688 23.387234 27.804609 23.263953 28.474609 22.876953 C 28.544609 22.845953 28.774781 22.799531 28.925781 22.769531 C 29.600781 22.633531 31.005047 22.350188 30.998047 20.992188 C 30.997047 20.697187 30.928656 20.348359 30.847656 19.943359 C 30.794656 19.673359 30.716078 19.284312 30.705078 19.070312 C 30.773078 18.972313 30.927203 18.809312 31.033203 18.695312 C 31.353203 18.355313 31.71675 17.970844 31.84375 17.464844 C 32.16875 16.193844 31.431203 15.675484 31.033203 15.396484 C 30.945203 15.334484 30.844141 15.268734 30.744141 15.177734 C 30.506141 14.960734 30.49275 14.871422 30.59375 14.232422 C 30.67575 13.714422 30.787938 13.006375 30.460938 12.234375 C 30.230937 11.691375 29.798141 11.306344 29.244141 11.152344 C 29.098641 11.112594 28.945953 11.087674 28.787109 11.078125 z M 14.097656 22.005859 C 13.991188 22.014141 13.884797 22.033656 13.779297 22.066406 C 12.847297 22.357406 12.333781 23.503734 11.925781 24.552734 L 11.890625 24.646484 C 11.868625 24.682484 11.776797 24.771078 11.716797 24.830078 C 11.485797 25.057078 11.136391 25.400891 11.025391 25.962891 C 10.920391 26.533891 11.151828 27.388828 11.423828 27.798828 L 11.427734 27.804688 C 11.704734 28.214688 12.066469 28.467922 12.355469 28.669922 C 12.518469 28.782922 12.670953 28.888328 12.751953 28.986328 C 12.817953 29.066328 12.921672 29.258734 13.013672 29.427734 C 13.308672 29.972734 13.713719 30.717453 14.511719 30.939453 C 14.631719 30.972453 14.776359 30.998047 14.943359 30.998047 C 15.218359 30.998047 15.551969 30.930844 15.917969 30.714844 C 16.759969 30.214844 16.909766 29.401281 17.009766 28.863281 L 17.044922 28.679688 C 17.122922 28.275688 17.287234 27.812875 17.490234 27.421875 C 17.510234 27.387875 17.537453 27.351453 17.564453 27.314453 C 17.746453 27.058453 18.304297 26.276031 17.779297 25.457031 C 17.632297 25.225031 17.440766 25.085234 17.259766 24.990234 C 17.258766 24.817234 17.246828 24.605719 17.173828 24.386719 C 16.965828 23.738719 16.505641 23.400812 15.806641 23.382812 L 15.798828 23.359375 C 15.693828 23.072375 15.517578 22.592859 15.017578 22.255859 C 14.735578 22.066109 14.417063 21.981016 14.097656 22.005859 z"/>
</svg>
