<svg width="111" height="111" viewBox="0 0 111 111" fill="none" xmlns="http://www.w3.org/2000/svg">
<path d="M50.875 4.625V14.0195C31.4299 16.108 16.108 31.4299 14.0195 50.875H4.625V60.125H14.0195C16.108 79.5701 31.4299 94.892 50.875 96.9805V106.375H60.125V96.9805C79.5701 94.892 94.892 79.5701 96.9805 60.125H106.375V50.875H96.9805C94.892 31.4299 79.5701 16.108 60.125 14.0195V4.625H50.875ZM55.5 23.125C73.5375 23.125 87.875 37.4625 87.875 55.5C87.875 73.5375 73.5375 87.875 55.5 87.875C37.4625 87.875 23.125 73.5375 23.125 55.5C23.125 37.4625 37.4625 23.125 55.5 23.125Z" fill="black"/>
<path d="M63.4336 32C61.4959 32 59.9105 33.2296 58.8691 33.834C56.6838 35.1047 55.3473 36 53.1641 36C53.2841 36 52.7649 35.9497 52.2266 35.8574C51.6882 35.7651 51.0022 35.6413 50.2871 35.5156C48.857 35.2643 47.4088 35 46.4707 35C45.6467 35 44.9211 35.1602 44.3223 35.25C42.1645 35.571 40.8678 36.8172 40.0059 38.0742C39.1436 39.3318 38.562 40.571 37.5684 41.459C37.1568 41.8254 36.5078 42.1317 35.8086 42.5645C35.1088 42.9975 34.3049 43.666 34.0293 44.7539C33.7525 45.845 34.0284 46.8834 34.3047 47.8203C34.581 48.7572 34.8877 49.6332 34.9492 50.1582C35.1249 51.6611 35.146 53.3901 34.8418 53.9121L34.8223 53.9434L34.8066 53.9766C34.278 55.0624 32.95 56.0783 32.3203 57.9453C31.9006 59.1886 32.0037 60.3586 32.2422 61.3789C32.4806 62.3992 32.8308 63.3056 33.0195 64.2051C33.1677 64.9095 33.0403 65.4709 32.791 66.1992C32.5417 66.9275 32.1491 67.7838 32.0059 68.8691C31.7716 70.6388 32.3273 72.2086 33.4063 73.291C34.4853 74.3734 35.9981 75 37.6973 75.3164H37.6992C38.6985 75.5011 39.7664 75.72 40.8262 75.8613H40.8164C41.114 75.904 42.331 76.1807 43.5527 76.4434C44.7695 76.7049 46.0044 76.9651 46.9024 76.998H46.9043C47.1077 77.0078 47.3061 77.0137 47.5039 77.0137C51.3163 77.0137 53.3143 76.6841 56.9473 75.9512C57.9482 75.7498 59.1781 75.5843 60.3106 75.3164C62.5173 74.794 64.8395 74.6461 67.2422 74.2266C69.4906 73.8356 71.2571 72.9712 72.4512 70.9375C72.891 70.1883 73.6097 69.721 74.4863 69.1191C75.363 68.5173 76.4082 67.7403 76.9316 66.3555V66.3535H76.9336C77.5434 64.7365 77.9961 63.3298 77.9961 61.002C77.9961 59.7686 77.5883 58.8365 77.125 58.1602C76.6998 57.5395 76.3107 57.1006 76 56.5625C75.9306 56.113 75.9305 55.8172 76.043 55.5039C76.1696 55.1513 76.4506 54.6918 76.8984 54.0176H76.9004C77.621 52.9283 77.9961 51.4504 77.9961 50.002C77.9961 49.0445 77.6189 48.1623 77.3379 47.1035C77.0569 46.0447 76.8617 44.9255 76.9844 44.1582L77 44.0566L76.9961 43.9512C76.9405 42.8159 76.3484 41.901 75.6348 41.3086C74.9219 40.7168 74.1033 40.3673 73.3711 40.0742L73.3691 40.0723C72.491 39.7182 72.1433 39.4655 72.0566 39.3379C71.9698 39.2101 71.9032 38.941 71.9922 38.1074V38.1055C72.1016 37.0708 71.8724 36.1294 71.3906 35.3984C70.9088 34.6674 70.2215 34.1602 69.4883 33.7812C68.0458 33.0357 66.3633 32.7176 65.0274 32.3672C64.5061 32.1134 63.9549 32 63.4336 32ZM63.4336 34C63.721 34 63.9679 34.0544 64.2168 34.1914L64.3242 34.252L64.3828 34.2676C65.9831 34.8707 66.6254 36.1461 66.9297 37.6953C67.236 39.2547 67.0839 40.9546 67.002 41.916C66.9848 42.1097 66.8768 42.2286 66.582 42.7109C66.2867 43.1943 65.951 43.9881 65.9981 45.0449C66.0339 45.8548 66.3767 46.4576 66.6172 46.9395C66.8576 47.4213 66.9965 47.7733 66.9981 48.0059C67.0049 49.0024 66.6459 49.5623 66.2813 50.5098C65.9166 51.4572 65.7097 52.7839 66.3789 54.457L66.3594 54.4043C66.7343 55.5194 66.9783 56.3763 66.9277 56.8301C66.8772 57.2838 66.7447 57.5855 65.5996 58.084V58.082C64.8048 58.4273 63.4591 58.6896 62.3535 59.3457C61.7583 59.6971 61.4075 59.9483 61.127 60.1016C60.8459 60.2551 60.6004 60.3537 60.0156 60.4707C58.9199 60.6888 57.9093 61.0574 57.1465 61.8164C56.3833 62.5759 55.987 63.691 55.9981 65.0078V65.0098C56.008 66.1103 55.8995 66.4978 55.209 67.3867C54.983 67.6771 54.5406 68.1075 54.0781 68.4375C53.638 68.7516 53.1736 68.9504 52.9395 68.9902C52.9306 68.9774 52.9318 68.9728 52.9141 68.9531C52.7566 68.7789 52.4108 68.2818 51.7246 68.0566H51.7227C51.0167 67.8261 50.3259 67.9155 49.7051 68.1094C49.0843 68.3033 48.5227 68.6102 48.0723 69.0371C46.952 70.0986 45.8946 71.3947 44.8066 72.3828C43.7333 73.3577 42.7012 73.9726 41.6445 73.9883C41.4657 73.9531 41.2347 73.9002 41.0996 73.8809H41.0957L41.0899 73.8789C40.1256 73.7503 39.0872 73.5409 38.0625 73.3516C36.6307 73.085 35.5018 72.5605 34.8223 71.8789C34.1428 71.1973 33.8235 70.3902 33.9902 69.1309C34.087 68.3972 34.392 67.6939 34.6816 66.8477C34.9713 66.0014 35.2244 64.9735 34.9766 63.7949C34.7453 62.6924 34.3843 61.7573 34.1895 60.9238C33.9947 60.0903 33.9415 59.3937 34.2149 58.584C34.604 57.4303 35.7715 56.5083 36.5723 54.9023C37.4692 53.3473 37.1131 51.4435 36.9356 49.9258V49.9238C36.8261 48.9908 36.4714 48.0975 36.2227 47.2539C35.9739 46.4103 35.8626 45.657 35.9668 45.2461C36.0742 44.822 36.3214 44.5979 36.8613 44.2637C37.4013 43.9295 38.1799 43.5933 38.9004 42.9512C40.2678 41.7291 40.9281 40.2642 41.6543 39.2051C42.3805 38.1459 43.0217 37.4632 44.6172 37.2266H44.6191C45.3003 37.1244 45.9227 37 46.4707 37C46.9326 37 48.5248 37.2357 49.9395 37.4844C50.6468 37.6087 51.3332 37.7349 51.8887 37.8301C52.4441 37.9253 52.7385 38 53.1641 38C55.9128 38 57.7384 36.8037 59.8731 35.5625C61.0577 34.8749 62.4593 34 63.4336 34ZM58.7871 41.0781C57.6752 41.0113 56.2116 41.6953 54.0293 43.2852L53.9336 43.3555C53.8366 43.4255 53.4797 43.5688 53.2207 43.6738C52.0157 44.1608 49.9981 44.976 49.9981 46.998V47.0273C50.0221 47.8533 50.3334 48.4869 50.6074 49.0449C50.7984 49.4349 50.9638 49.77 51.0078 50.127C51.0428 50.397 51.0638 50.7307 51.0898 51.0938C51.2178 52.9267 51.4317 55.9941 53.7227 55.9941H53.7246C53.7826 55.9971 53.8385 55.998 53.8945 55.998C55.2855 55.998 56.0931 55.1144 56.7481 54.3984L57.125 53.9902C57.688 53.3872 57.8046 53.264 58.4746 52.877C58.5446 52.846 58.7748 52.7995 58.9258 52.7695C59.6008 52.6335 61.0051 52.3502 60.9981 50.9922C60.9971 50.6972 60.9287 50.3484 60.8477 49.9434C60.7947 49.6734 60.7161 49.2843 60.7051 49.0703C60.7731 48.9723 60.9272 48.8093 61.0332 48.6953C61.3532 48.3553 61.7168 47.9708 61.8438 47.4648C62.1688 46.1938 61.4312 45.6755 61.0332 45.3965C60.9452 45.3345 60.8441 45.2687 60.7441 45.1777C60.5061 44.9607 60.4928 44.8714 60.5938 44.2324C60.6758 43.7144 60.7879 43.0064 60.4609 42.2344C60.2309 41.6914 59.7981 41.3063 59.2441 41.1523C59.0986 41.1126 58.946 41.0877 58.7871 41.0781ZM44.0977 52.0059C43.9912 52.0141 43.8848 52.0337 43.7793 52.0664C42.8473 52.3574 42.3338 53.5037 41.9258 54.5527L41.8906 54.6465C41.8686 54.6825 41.7768 54.7711 41.7168 54.8301C41.4858 55.0571 41.1364 55.4009 41.0254 55.9629C40.9204 56.5339 41.1518 57.3888 41.4238 57.7988L41.4277 57.8047C41.7047 58.2147 42.0665 58.4679 42.3555 58.6699C42.5185 58.7829 42.671 58.8883 42.752 58.9863C42.818 59.0663 42.9217 59.2587 43.0137 59.4277C43.3087 59.9727 43.7137 60.7175 44.5117 60.9395C44.6317 60.9725 44.7764 60.998 44.9434 60.998C45.2184 60.998 45.552 60.9308 45.918 60.7148C46.76 60.2148 46.9098 59.4013 47.0098 58.8633L47.0449 58.6797C47.1229 58.2757 47.2872 57.8129 47.4902 57.4219C47.5102 57.3879 47.5375 57.3515 47.5645 57.3145C47.7465 57.0585 48.3043 56.276 47.7793 55.457C47.6323 55.225 47.4408 55.0852 47.2598 54.9902C47.2588 54.8172 47.2468 54.6057 47.1738 54.3867C46.9658 53.7387 46.5056 53.4008 45.8066 53.3828L45.7988 53.3594C45.6938 53.0724 45.5176 52.5929 45.0176 52.2559C44.7356 52.0661 44.4171 51.981 44.0977 52.0059Z" fill="black"/>
</svg>
