<svg width="36" height="36" viewBox="0 0 36 36" xmlns="http://www.w3.org/2000/svg">
<path d="M16.5 1.5V4.54688C10.1935 5.2242 5.2242 10.1935 4.54688 16.5H1.5V19.5H4.54688C5.2242 25.8065 10.1935 30.7758 16.5 31.4531V34.5H19.5V31.4531C25.8065 30.7758 30.7758 25.8065 31.4531 19.5H34.5V16.5H31.4531C30.7758 10.1935 25.8065 5.2242 19.5 4.54688V1.5H16.5ZM18 7.5C23.85 7.5 28.5 12.15 28.5 18C28.5 23.85 23.85 28.5 18 28.5C12.15 28.5 7.5 23.85 7.5 18C7.5 12.15 12.15 7.5 18 7.5Z" style="fill:#ffffff;fill-opacity:1;stroke:none"/>
<path d="M13 10C12.2044 10 11.4413 10.3161 10.8787 10.8787C10.3161 11.4413 10 12.2044 10 13C10 13.7956 10.3161 14.5587 10.8787 15.1213C11.4413 15.6839 12.2044 16 13 16C13.3717 15.9989 13.7399 15.9287 14.0859 15.793C14.6252 16.6139 15 17.4354 15 18C15 18.5636 14.6276 19.3845 14.0898 20.2051C13.7425 20.0696 13.3729 20 13 20C12.2044 20 11.4413 20.3161 10.8787 20.8787C10.3161 21.4413 10 22.2044 10 23C10 23.7956 10.3161 24.5587 10.8787 25.1213C11.4413 25.6839 12.2044 26 13 26C13.7956 26 14.5587 25.6839 15.1213 25.1213C15.6839 24.5587 16 23.7956 16 23C15.9988 22.6304 15.9292 22.2642 15.7949 21.9199C16.6183 21.3775 17.4395 21 18 21C18.5595 21 19.3781 21.3753 20.2012 21.916C20.0677 22.2618 19.9995 22.6293 20 23C20 23.7956 20.3161 24.5587 20.8787 25.1213C21.4413 25.6839 22.2044 26 23 26C23.7956 26 24.5587 25.6839 25.1213 25.1213C25.6839 24.5587 26 23.7956 26 23C26 22.2044 25.6839 21.4413 25.1213 20.8787C24.5587 20.3161 23.7956 20 23 20C22.6283 20.0011 22.2601 20.0713 21.9141 20.207C21.3748 19.3861 21 18.5646 21 18C21 17.4364 21.3724 16.6155 21.9102 15.7949C21.9108 15.7956 21.9115 15.7962 21.9122 15.7969C22.259 15.9315 22.6279 16.0003 23 16C23.7956 16 24.5587 15.6839 25.1213 15.1213C25.6839 14.5587 26 13.7956 26 13C26 12.2044 25.6839 11.4413 25.1213 10.8787C24.5587 10.3161 23.7956 10 23 10C22.2044 10 21.4413 10.3161 20.8787 10.8787C20.3161 11.4413 20 12.2044 20 13C20.0012 13.3696 20.0708 13.7358 20.2051 14.0801C19.3817 14.6225 18.5605 15 18 15C17.4405 15 16.6219 14.6247 15.7988 14.084C15.9323 13.7382 16.0005 13.3707 16 13C16 12.2044 15.6839 11.4413 15.1213 10.8787C14.5587 10.3161 13.7956 10 13 10ZM13 11C13.5304 11 14.0391 11.2107 14.4142 11.5858C14.7893 11.9609 15 12.4696 15 13C14.9998 13.1526 14.9821 13.3046 14.9473 13.4531C14.4895 13.0843 14.0547 12.6942 13.707 12.293C13.5229 12.1087 13.2741 12.0036 13.0137 12C12.8801 11.9982 12.7474 12.0232 12.6237 12.0735C12.4999 12.1238 12.3874 12.1985 12.293 12.293C12.1055 12.4805 12.0002 12.7348 12.0002 13C12.0002 13.2652 12.1055 13.5195 12.293 13.707C12.3118 13.726 12.3313 13.7443 12.3516 13.7617C12.734 14.0955 13.1067 14.5094 13.459 14.9453C13.3086 14.9812 13.1546 14.9996 13 15C12.4696 15 11.9609 14.7893 11.5858 14.4142C11.2107 14.0391 11 13.5304 11 13C11 12.4696 11.2107 11.9609 11.5858 11.5858C11.9609 11.2107 12.4696 11 13 11ZM23 11C23.5304 11 24.0391 11.2107 24.4142 11.5858C24.7893 11.9609 25 12.4696 25 13C25 13.5304 24.7893 14.0391 24.4142 14.4142C24.0391 14.7893 23.5304 15 23 15C22.8461 14.9994 22.6927 14.9811 22.543 14.9453C22.9135 14.4861 23.3049 14.0501 23.707 13.707C23.8945 13.5195 23.9998 13.2652 23.9998 13C23.9998 12.7348 23.8945 12.4805 23.707 12.293C23.5195 12.1055 23.2652 12.0002 23 12.0002C22.7348 12.0002 22.4805 12.1055 22.293 12.293C22.2747 12.3105 22.2571 12.3288 22.2402 12.3477C21.9026 12.7295 21.4895 13.102 21.0547 13.4531C21.0192 13.3047 21.0009 13.1526 21 13C21 12.4696 21.2107 11.9609 21.5858 11.5858C21.9609 11.2107 22.4696 11 23 11ZM13 21C13.1539 21.0006 13.3073 21.0189 13.457 21.0547C13.0865 21.5139 12.6951 21.9499 12.293 22.293C12.1055 22.4805 12.0002 22.7348 12.0002 23C12.0002 23.2652 12.1055 23.5195 12.293 23.707C12.4805 23.8945 12.7348 23.9999 13 23.9999C13.2652 23.9999 13.5195 23.8945 13.707 23.707C13.7253 23.6895 13.7429 23.6712 13.7598 23.6523C14.0974 23.2705 14.5105 22.898 14.9453 22.5469C14.9808 22.6953 14.9991 22.8474 15 23C15 23.5304 14.7893 24.0391 14.4142 24.4142C14.0391 24.7893 13.5304 25 13 25C12.4696 25 11.9609 24.7893 11.5858 24.4142C11.2107 24.0391 11 23.5304 11 23C11 22.4696 11.2107 21.9609 11.5858 21.5858C11.9609 21.2107 12.4696 21 13 21ZM23 21C23.5304 21 24.0391 21.2107 24.4142 21.5858C24.7893 21.9609 25 22.4696 25 23C25 23.5304 24.7893 24.0391 24.4142 24.4142C24.0391 24.7893 23.5304 25 23 25C22.4696 25 21.9609 24.7893 21.5858 24.4142C21.2107 24.0391 21 23.5304 21 23C21.0002 22.8474 21.0179 22.6954 21.0527 22.5469C21.5105 22.9157 21.9453 23.3058 22.293 23.707C22.4805 23.8945 22.7348 23.9998 23 23.9998C23.2652 23.9998 23.5195 23.8945 23.707 23.707C23.8945 23.5195 23.9998 23.2652 23.9998 23C23.9998 22.7348 23.8945 22.4805 23.707 22.293C23.6899 22.2783 23.6734 22.2591 23.6562 22.2441C23.6537 22.2422 23.6511 22.2402 23.6484 22.2382C23.266 21.9045 22.8933 21.4906 22.541 21.0547C22.6914 21.0188 22.8454 21.0004 23 21Z" style="fill:#ffffff;fill-opacity:1;stroke:none"/>
</svg>
