<?xml version="1.0"?>
<svg width="22" height="22" xmlns="http://www.w3.org/2000/svg" xmlns:svg="http://www.w3.org/2000/svg">

 <g class="layer">
  <title>Layer 1</title>
  <path class="ColorScheme-Text" d="m6,3a3,3 0 0 0 -3,3a3,3 0 0 0 3,3a3,3 0 0 0 1.09,-0.21c0.54,0.82 0.91,1.65 0.91,2.21c0,0.56 -0.37,1.38 -0.91,2.21a3,3 0 0 0 -1.09,-0.21a3,3 0 0 0 -3,3a3,3 0 0 0 3,3a3,3 0 0 0 3,-3a3,3 0 0 0 -0.21,-1.08c0.83,-0.54 1.65,-0.92 2.21,-0.92c0.56,0 1.38,0.38 2.2,0.92a3,3 0 0 0 -0.2,1.08a3,3 0 0 0 3,3a3,3 0 0 0 3,-3a3,3 0 0 0 -3,-3a3,3 0 0 0 -1.09,0.21c-0.54,-0.82 -0.91,-1.65 -0.91,-2.21c0,-0.56 0.37,-1.38 0.91,-2.21a3,3 0 0 0 0,0.01a3,3 0 0 0 1.09,0.2a3,3 0 0 0 3,-3a3,3 0 0 0 -3,-3a3,3 0 0 0 -3,3a3,3 0 0 0 0.21,1.08c-0.83,0.54 -1.65,0.92 -2.21,0.92c-0.56,0 -1.38,-0.38 -2.2,-0.92a3,3 0 0 0 0.2,-1.08a3,3 0 0 0 -3,-3zm0,1a2,2 0 0 1 2,2a2,2 0 0 1 -0.05,0.45c-0.46,-0.37 -0.9,-0.76 -1.24,-1.16a1,1 0 0 0 -0.7,-0.29a1,1 0 0 0 -0.72,0.29a1,1 0 0 0 0,1.42a1,1 0 0 0 0.06,0.05c0.38,0.34 0.76,0.75 1.11,1.19a2,2 0 0 1 -0.46,0.05a2,2 0 0 1 -2,-2a2,2 0 0 1 2,-2zm10,0a2,2 0 0 1 2,2a2,2 0 0 1 -2,2a2,2 0 0 1 -0.46,-0.05c0.37,-0.46 0.76,-0.9 1.17,-1.24a1,1 0 0 0 0,-1.42a1,1 0 0 0 -1.42,0a1,1 0 0 0 -0.05,0.06c-0.34,0.38 -0.75,0.75 -1.19,1.1a2,2 0 0 1 -0.05,-0.45a2,2 0 0 1 2,-2zm-10,10a2,2 0 0 1 0.46,0.05c-0.37,0.46 -0.76,0.9 -1.17,1.24a1,1 0 0 0 0,1.42a1,1 0 0 0 1.42,0a1,1 0 0 0 0.05,-0.06c0.34,-0.38 0.75,-0.75 1.19,-1.1a2,2 0 0 1 0.05,0.45a2,2 0 0 1 -2,2a2,2 0 0 1 -2,-2a2,2 0 0 1 2,-2zm10,0a2,2 0 0 1 2,2a2,2 0 0 1 -2,2a2,2 0 0 1 -2,-2a2,2 0 0 1 0.05,-0.45c0.46,0.37 0.9,0.76 1.24,1.16a1,1 0 0 0 1.42,0a1,1 0 0 0 0,-1.42c-0.02,-0.01 -0.04,-0.03 -0.05,-0.05a1,1 0 0 0 -0.01,0c-0.38,-0.34 -0.76,-0.75 -1.11,-1.19a2,2 0 0 1 0.46,-0.05z" fill="#ff0000" id="svg_1"/>
 </g>
</svg>