<svg width="22" height="22" viewBox="0 0 22 22" fill="none" xmlns="http://www.w3.org/2000/svg">
<path d="M6 3C5.20435 3 4.44129 3.31607 3.87868 3.87868C3.31607 4.44129 3 5.20435 3 6C3 6.79565 3.31607 7.55871 3.87868 8.12132C4.44129 8.68393 5.20435 9 6 9C6.37168 8.99886 6.73991 8.92865 7.08594 8.79297C7.62521 9.61392 8 10.4354 8 11C8 11.5636 7.62755 12.3845 7.08984 13.2051C6.74246 13.0696 6.37287 13 6 13C5.20435 13 4.44129 13.3161 3.87868 13.8787C3.31607 14.4413 3 15.2044 3 16C3 16.7956 3.31607 17.5587 3.87868 18.1213C4.44129 18.6839 5.20435 19 6 19C6.79565 19 7.55871 18.6839 8.12132 18.1213C8.68393 17.5587 9 16.7956 9 16C8.99875 15.6304 8.92923 15.2642 8.79492 14.9199C9.61827 14.3775 10.4395 14 11 14C11.5595 14 12.3781 14.3753 13.2012 14.916C13.0677 15.2618 12.9995 15.6293 13 16C13 16.7956 13.3161 17.5587 13.8787 18.1213C14.4413 18.6839 15.2044 19 16 19C16.7956 19 17.5587 18.6839 18.1213 18.1213C18.6839 17.5587 19 16.7956 19 16C19 15.2044 18.6839 14.4413 18.1213 13.8787C17.5587 13.3161 16.7956 13 16 13C15.6283 13.0011 15.2601 13.0713 14.9141 13.207C14.3748 12.3861 14 11.5646 14 11C14 10.4364 14.3724 9.6155 14.9102 8.79492C14.9108 8.79557 14.9115 8.79622 14.9122 8.79687C15.259 8.93146 15.6279 9.00034 16 9C16.7956 9 17.5587 8.68393 18.1213 8.12132C18.6839 7.55871 19 6.79565 19 6C19 5.20435 18.6839 4.44129 18.1213 3.87868C17.5587 3.31607 16.7956 3 16 3C15.2044 3 14.4413 3.31607 13.8787 3.87868C13.3161 4.44129 13 5.20435 13 6C13.0012 6.36958 13.0708 6.73576 13.2051 7.08008C12.3817 7.62252 11.5605 8 11 8C10.4405 8 9.62185 7.62469 8.79883 7.08398C8.93227 6.73819 9.00048 6.37065 9 6C9 5.20435 8.68393 4.44129 8.12132 3.87868C7.55871 3.31607 6.79565 3 6 3ZM6 4C6.53043 4 7.03914 4.21071 7.41421 4.58579C7.78929 4.96086 8 5.46957 8 6C7.99976 6.15256 7.98207 6.30459 7.94727 6.45312C7.48947 6.08429 7.05466 5.69421 6.70703 5.29297C6.52289 5.10874 6.27413 5.00363 6.01367 5C5.88006 4.99821 5.74745 5.02321 5.62366 5.07353C5.49988 5.12384 5.38743 5.19846 5.29297 5.29297C5.10548 5.4805 5.00015 5.73482 5.00015 6C5.00015 6.26518 5.10548 6.5195 5.29297 6.70703C5.31176 6.72604 5.33131 6.74428 5.35156 6.76172C5.73402 7.09551 6.10673 7.50936 6.45898 7.94531C6.30862 7.98122 6.15459 7.99957 6 8C5.46957 8 4.96086 7.78929 4.58579 7.41421C4.21071 7.03914 4 6.53043 4 6C4 5.46957 4.21071 4.96086 4.58579 4.58579C4.96086 4.21071 5.46957 4 6 4ZM16 4C16.5304 4 17.0391 4.21071 17.4142 4.58579C17.7893 4.96086 18 5.46957 18 6C18 6.53043 17.7893 7.03914 17.4142 7.41421C17.0391 7.78929 16.5304 8 16 8C15.8461 7.99942 15.6927 7.98107 15.543 7.94531C15.9135 7.48611 16.3049 7.05014 16.707 6.70703C16.8945 6.5195 16.9998 6.26518 16.9998 6C16.9998 5.73482 16.8945 5.4805 16.707 5.29297C16.5195 5.10548 16.2652 5.00015 16 5.00015C15.7348 5.00015 15.4805 5.10548 15.293 5.29297C15.2747 5.31052 15.2571 5.32877 15.2402 5.34766C14.9026 5.7295 14.4895 6.10199 14.0547 6.45312C14.0192 6.30467 14.0009 6.15263 14 6C14 5.46957 14.2107 4.96086 14.5858 4.58579C14.9609 4.21071 15.4696 4 16 4ZM6 14C6.15394 14.0006 6.3073 14.0189 6.45703 14.0547C6.08652 14.5139 5.69508 14.9499 5.29297 15.293C5.10548 15.4805 5.00015 15.7348 5.00015 16C5.00015 16.2652 5.10548 16.5195 5.29297 16.707C5.4805 16.8945 5.73482 16.9999 6 16.9999C6.26518 16.9999 6.5195 16.8945 6.70703 16.707C6.7253 16.6895 6.74289 16.6712 6.75977 16.6523C7.09739 16.2705 7.51047 15.898 7.94531 15.5469C7.98077 15.6953 7.99912 15.8474 8 16C8 16.5304 7.78929 17.0391 7.41421 17.4142C7.03914 17.7893 6.53043 18 6 18C5.46957 18 4.96086 17.7893 4.58579 17.4142C4.21071 17.0391 4 16.5304 4 16C4 15.4696 4.21071 14.9609 4.58579 14.5858C4.96086 14.2107 5.46957 14 6 14ZM16 14C16.5304 14 17.0391 14.2107 17.4142 14.5858C17.7893 14.9609 18 15.4696 18 16C18 16.5304 17.7893 17.0391 17.4142 17.4142C17.0391 17.7893 16.5304 18 16 18C15.4696 18 14.9609 17.7893 14.5858 17.4142C14.2107 17.0391 14 16.5304 14 16C14.0002 15.8474 14.0179 15.6954 14.0527 15.5469C14.5105 15.9157 14.9453 16.3058 15.293 16.707C15.4805 16.8945 15.7348 16.9998 16 16.9998C16.2652 16.9998 16.5195 16.8945 16.707 16.707C16.8945 16.5195 16.9998 16.2652 16.9998 16C16.9998 15.7348 16.8945 15.4805 16.707 15.293C16.6899 15.2783 16.6734 15.2591 16.6562 15.2441C16.6537 15.2422 16.6511 15.2402 16.6484 15.2382C16.266 14.9045 15.8933 14.4906 15.541 14.0547C15.6914 14.0188 15.8454 14.0004 16 14Z" fill="black"/>
<g clip-path="url(#clip0_1_2)">
<path d="M10.25 2.75V4.27344C7.09674 4.6121 4.6121 7.09674 4.27344 10.25H2.75V11.75H4.27344C4.6121 14.9033 7.09674 17.3879 10.25 17.7266V19.25H11.75V17.7266C14.9033 17.3879 17.3879 14.9033 17.7266 11.75H19.25V10.25H17.7266C17.3879 7.09674 14.9033 4.6121 11.75 4.27344V2.75H10.25ZM11 5.75C13.925 5.75 16.25 8.075 16.25 11C16.25 13.925 13.925 16.25 11 16.25C8.075 16.25 5.75 13.925 5.75 11C5.75 8.075 8.075 5.75 11 5.75Z" fill="black"/>
</g>
<defs>
<clipPath id="clip0_1_2">
<rect width="18" height="18" fill="white" transform="translate(2 2)"/>
</clipPath>
</defs>
</svg>
